<?xml version="1.0" encoding="UTF-8"?>
<!DOCTYPE svg PUBLIC "-//W3C//DTD SVG 1.1//EN" "http://www.w3.org/Graphics/SVG/1.1/DTD/svg11.dtd">
<svg version="1.1" xmlns="http://www.w3.org/2000/svg" xmlns:xlink="http://www.w3.org/1999/xlink" x="0" y="0" width="283.465" height="141.732" viewBox="0, 0, 283.465, 141.732">
  <g id="Layer_1">
    <path d="M19.687,24.673 L19.687,86.213 L25.548,86.213 L25.548,56.391 L56.46,56.391 L56.46,86.213 L62.321,86.213 L62.321,24.673 L56.46,24.673 L56.46,51.392 L25.548,51.392 L25.548,24.673 z" fill="#000000"/>
    <path d="M92.488,45.014 Q96.367,45.014 99.297,46.652 Q102.228,48.289 104.167,50.961 Q106.107,53.633 107.098,57.038 Q108.089,60.442 108.089,63.976 Q108.089,67.51 107.098,70.914 Q106.107,74.319 104.167,76.991 Q102.228,79.663 99.297,81.3 Q96.367,82.938 92.488,82.938 Q88.61,82.938 85.679,81.3 Q82.749,79.663 80.809,76.991 Q78.87,74.319 77.879,70.914 Q76.888,67.51 76.888,63.976 Q76.888,60.442 77.879,57.038 Q78.87,53.633 80.809,50.961 Q82.749,48.289 85.679,46.652 Q88.61,45.014 92.488,45.014 z M92.488,40.446 Q87.403,40.446 83.481,42.342 Q79.56,44.238 76.888,47.427 Q74.216,50.616 72.837,54.883 Q71.458,59.149 71.458,63.976 Q71.458,68.803 72.837,73.069 Q74.216,77.336 76.888,80.525 Q79.56,83.714 83.481,85.567 Q87.403,87.42 92.488,87.42 Q97.574,87.42 101.495,85.567 Q105.417,83.714 108.089,80.525 Q110.761,77.336 112.14,73.069 Q113.519,68.803 113.519,63.976 Q113.519,59.149 112.14,54.883 Q110.761,50.616 108.089,47.427 Q105.417,44.238 101.495,42.342 Q97.574,40.446 92.488,40.446 z" fill="#000000"/>
    <path d="M121.621,41.739 L121.621,86.213 L127.051,86.213 L127.051,62.511 Q127.051,58.977 128.258,56.003 Q129.464,53.03 131.662,50.875 Q133.86,48.72 136.877,47.557 Q139.894,46.393 143.6,46.565 L143.6,41.135 Q137.566,40.877 133.214,43.807 Q128.861,46.738 126.792,52.168 L126.62,52.168 L126.62,41.739 z" fill="#000000"/>
    <path d="M262.429,54.754 L267.859,54.754 Q267.686,51.133 266.394,48.462 Q265.101,45.79 262.903,43.98 Q260.705,42.17 257.818,41.308 Q254.93,40.446 251.569,40.446 Q248.638,40.446 245.665,41.135 Q242.691,41.825 240.278,43.29 Q237.864,44.755 236.356,47.169 Q234.848,49.582 234.848,52.944 Q234.848,55.788 235.796,57.727 Q236.744,59.666 238.424,61.002 Q240.105,62.338 242.346,63.243 Q244.587,64.148 247.259,64.838 L254.241,66.389 Q256.051,66.82 257.818,67.424 Q259.584,68.027 260.963,68.932 Q262.343,69.837 263.161,71.173 Q263.98,72.509 263.98,74.491 Q263.98,76.818 262.817,78.413 Q261.653,80.008 259.843,81.042 Q258.033,82.076 255.921,82.507 Q253.81,82.938 251.827,82.938 Q246.397,82.938 242.734,80.137 Q239.071,77.336 238.726,71.819 L233.296,71.819 Q233.986,80.008 238.855,83.714 Q243.725,87.42 251.569,87.42 Q254.672,87.42 257.861,86.73 Q261.05,86.041 263.592,84.446 Q266.135,82.852 267.773,80.309 Q269.41,77.767 269.41,74.147 Q269.41,71.216 268.29,69.061 Q267.169,66.906 265.402,65.441 Q263.635,63.976 261.351,63.071 Q259.067,62.166 256.74,61.821 L249.5,60.184 Q248.121,59.839 246.483,59.279 Q244.846,58.718 243.467,57.856 Q242.088,56.994 241.183,55.745 Q240.278,54.495 240.278,52.685 Q240.278,50.53 241.226,49.065 Q242.174,47.6 243.725,46.695 Q245.277,45.79 247.13,45.402 Q248.983,45.014 250.793,45.014 Q253.12,45.014 255.189,45.574 Q257.257,46.134 258.852,47.341 Q260.446,48.548 261.394,50.401 Q262.343,52.254 262.429,54.754 z" fill="#000000"/>
    <path d="M170,23.343 C188.251,23.405 219.975,42.924 207.02,81.59 C207.02,81.59 220.902,73.571 225.167,41.077 C228.014,41.077 230.908,41.077 230.908,41.077 C226.117,76.06 205.495,97.865 175.733,97.865 C171.746,97.865 19.752,97.861 19.752,97.861 L19.752,93.534 C19.752,93.534 154.826,93.454 175.763,93.454 C195.609,93.454 207.802,86.213 207.906,65.399 C208.036,39.464 185.767,28.342 169.974,28.342 C167.963,28.342 166.024,28.557 164.156,28.988 C162.289,29.419 160.651,30.109 159.243,31.057 C157.836,32.005 156.701,33.255 155.839,34.806 C154.977,36.358 154.546,38.283 154.546,40.581 C154.546,42.017 154.79,43.267 155.279,44.33 C155.767,45.393 156.442,46.298 157.304,47.045 C158.166,47.792 159.157,48.396 160.278,48.855 C161.398,49.315 162.591,49.688 163.855,49.976 L178.852,53.682 C181.035,54.257 183.09,54.961 185.015,55.794 C186.94,56.627 188.635,57.661 190.1,58.897 C191.565,60.132 192.714,61.64 193.548,63.422 C194.381,65.203 194.797,67.358 194.797,69.886 C194.797,70.576 194.726,71.495 194.582,72.644 C194.438,73.793 194.093,75.014 193.548,76.307 C193.002,77.6 192.226,78.907 191.22,80.229 C190.215,81.551 188.836,82.743 187.083,83.806 C185.331,84.869 183.162,85.731 180.576,86.392 C177.99,87.052 174.887,87.374 171.267,87.383 C156.24,87.42 152.287,76.675 152.287,74.123 C152.287,70.026 154.763,70.019 154.763,70.019 C154.763,70.019 153.843,78.298 163.193,81.302 C165.009,81.886 169.831,82.47 172.646,82.47 C174.255,82.47 176.008,82.24 177.904,81.78 C179.8,81.321 181.567,80.588 183.205,79.582 C184.842,78.577 186.207,77.284 187.299,75.704 C188.39,74.124 188.936,72.213 188.936,69.972 C188.936,68.248 188.548,66.754 187.773,65.49 C186.997,64.226 185.991,63.163 184.756,62.301 C183.521,61.439 182.156,60.735 180.662,60.189 C179.168,59.644 177.703,59.198 176.266,58.854 L162.561,55.492 C160.781,55.032 159.042,54.458 157.347,53.768 C155.652,53.079 154.173,52.159 152.908,51.01 C151.644,49.861 150.624,48.453 149.849,46.787 C149.073,45.12 148.685,43.081 148.685,40.667 C148.685,39.173 148.972,37.421 149.547,35.409 C150.122,33.398 151.199,31.502 152.779,29.721 C154.359,27.94 156.488,26.338 159.287,25.196 C162.213,24.002 167.114,23.333 170,23.343 z" fill="#0D1A75"/>
    <path d="M93.208,36.977 L101.074,34.068 L101.074,25.362 L95.213,25.362 z" fill="#000000"/>
    <path d="M80.992,36.977 L88.858,34.068 L88.858,25.362 L82.997,25.362 z" fill="#000000"/>
    <path d="M155.042,88.334 C142.764,80.176 145.369,67.778 153.16,65.726 C158.318,64.368 159.994,67.583 158.191,68.993 C156.808,70.076 154.763,70.019 154.763,70.019 C158.712,68.953 155.196,65.901 151.196,69.535 C147.288,73.084 149.014,84.413 155.073,88.365 z" fill="#0D1A75"/>
    <text transform="matrix(1, 0, 0, 1, 144.152, 107.33)">
      <tspan x="-125.259" y="4" font-family="HelveticaNeue-Light" font-size="12.2" kerning="0.8" fill="#000000">GmbH – Hörsystemtechnik F&amp;E Hannover</tspan>
    </text>
    <path d="M167,39.498 C167,39.498 201.346,42.025 201.812,65.075 C202.25,86.713 188.702,91.411 173.27,91.144 C154.112,90.813 147.034,74.145 153.298,70.098" fill-opacity="0" stroke="#000000" stroke-width="0.5" stroke-dasharray="1,1" stroke-linecap="round"/>
  </g>
</svg>
