<?xml version="1.0" encoding="utf-8"?>
<!-- Generator: Adobe Illustrator 28.1.0, SVG Export Plug-In . SVG Version: 6.00 Build 0)  -->
<svg version="1.1" id="Laag_1" xmlns="http://www.w3.org/2000/svg" xmlns:xlink="http://www.w3.org/1999/xlink" x="0px" y="0px"
	 viewBox="0 0 283.9 66.1" style="enable-background:new 0 0 283.9 66.1;" xml:space="preserve">
<style type="text/css">
	.st0{fill:#FFFFFF;}
	.st1{fill:#70706F;}
</style>
<path class="st0" d="M219.3,47.8c-1.1-1.8-2.5-4.8-4.1-9c-0.7-1.8-0.7-2-1.1-2.2c-0.5-0.3-1-0.3-1.5-0.1c-0.6,0.3-1,1-1.1,2
	c-0.2,1-2.8,7.1-4,9c-0.1-0.2-0.2-0.5-0.3-0.6l0,0c-0.3-0.8-1.5-7.6-1.8-9.8c-0.1-0.8-0.2-1.4-0.3-1.5c-0.2-1-0.9-1.3-1.4-1.3
	c-0.8,0.1-1.3,0.8-1.4,2.1c-0.1,0.7-1,2.9-1.8,4.9l-2-1.6c-0.3-0.2-0.6-0.3-0.9-0.2c-0.3,0.1-0.6,0.3-0.8,0.6
	c-0.1,0.2-0.3,0.5-0.4,0.7c-0.1-0.1-0.3-0.3-0.4-0.4c-0.2-0.2-0.5-0.4-0.8-0.4c-0.3,0-0.6,0.1-0.8,0.3c0,0-0.7,0.7-1.4,1.6
	c-0.3,0.5-1.8,1.1-2.6,0.5c-0.6-0.4-1.2-2.4-1.4-4.1c0-0.1,0-0.2,0-0.2c-0.1-0.6-0.7-0.9-1.3-0.8c-0.6,0.1-1,0.6-0.9,1.2
	c0,0.1-0.2,1-1.6,3.3c-1.4,2.2-4,0.9-4.3,0.8c-0.3-0.2-0.7-0.2-1,0l-3.4,1.8c-0.6-0.6-1.4-1.3-2.7-1.4c-1.5-0.2-2.4,0.2-2.8,0.5
	c-0.6,0.2-2.6,0.6-5,0.6c-1.3,0-2-0.2-2.4-0.4c0-0.3-0.1-0.6-0.2-0.7c-0.7-1-1.8-0.4-3.3,0.4c-1.9,1-5.3,0.4-6.4,0.1
	c-0.4-0.1-0.8,0-1.1,0.3c-0.4,0.4-1,0.8-1.3,0.9c-0.3-0.3-1-1.5-1.3-2.7c-0.2-0.5-0.6-0.8-1.1-0.7c-0.5,0-0.9,0.4-1,0.9
	c0,0-0.2,0.9-1.1,1.8c-0.6,0.6-3.2,1.6-5.2,2.2l-3-3.3c-0.3-0.3-0.6-0.4-1-0.3c-0.4,0.1-0.7,0.3-0.8,0.7c-0.3,0.9-0.7,1.8-1.1,2.3
	c-0.2-0.2-0.4-0.5-0.6-0.7c-0.7-1-2.4-0.4-1.8,1.1c0.3,0.6,1.5,1.8,1.5,1.8c0.5,0.4,1,0.5,1.6,0.2c0.6-0.3,1.2-1.2,1.7-2.3l2.3,2.5
	c0.3,0.3,0.7,0.4,1.1,0.3c0.9-0.3,5.5-1.7,6.8-3c0.2-0.2,0.4-0.4,0.5-0.6c0.4,0.8,1,1.5,1.6,1.8c1.2,0.6,2.6-0.3,3.3-1
	c1.4,0.3,4.9,0.8,7.4-0.5c0.2-0.1,0.4-0.2,0.6-0.3c0.6,0.6,1.8,1.3,4.2,1.3c3.3,0,5.7-0.7,5.8-0.7c0.2-0.1,0.4-0.2,0.5-0.3
	c0.1,0,0.4-0.2,1.2-0.1c1,0.1,1.7,1.2,1.7,1.2c0.3,0.5,1,0.7,1.5,0.4l3.8-2c1.8,0.7,4.9,1,6.7-1.8c0.2-0.3,0.4-0.6,0.5-0.9
	c0.3,0.9,0.8,1.7,1.5,2.2c1.9,1.3,4.7,0.3,5.7-1c0.2-0.2,0.3-0.4,0.4-0.6c0.5,0.5,0.8,0.6,0.9,0.6c0.8,0.3,1.4-0.2,2-1.1l2.2,1.7
	c0.3,0.2,0.6,0.3,0.9,0.2c0.3-0.1,0.6-0.3,0.8-0.6c0.2-0.5,1-2.2,1.7-3.9c1.1,6.4,1.4,7.9,1.7,8.3l0.1,0.1c0.4,0.8,1.3,2.6,2.9,2.1
	c1.4-0.4,4.1-7.1,5.2-10c2.2,5.8,4.2,9.9,6.3,11.5C219.2,50.4,219.1,49.1,219.3,47.8L219.3,47.8z"/>
<path class="st0" d="M267.5,45.4c-0.6-0.2-1.2,0-1.4,0.6c-1.6,3.8-7.2,14.6-11.9,14c-0.5-0.1-3.3-1.8-6.2-28.6l0-0.3
	c-0.7-6.3-1.3-7-2.1-7.2c-0.1,0-0.2-0.1-0.3-0.1c-0.7-0.1-1.8,0.1-2.5,1.6c-0.5,1-2.2,9-3.2,14.2c-0.2-0.4-0.4-0.7-0.6-0.9
	c0,0.2,0,0.3,0.1,0.5c0.2,0.9,0.2,1.8-0.1,2.7c-0.1,0.3-0.2,0.6-0.3,0.9c0.1,0.3,0.2,0.6,0.3,0.9c0.2,0.5,0.6,0.8,1.1,0.7
	c0.5,0,0.9-0.4,1-0.9c1.5-7.5,3.2-15.9,3.7-17.1c0.2,0.8,0.5,2.2,0.8,4.9l0,0.3c2.3,21.3,4.7,30.1,8.1,30.6c0.2,0,0.5,0,0.7,0
	c6.9,0,12.9-13.8,13.5-15.4C268.3,46.3,268,45.6,267.5,45.4L267.5,45.4z"/>
<path class="st0" d="M20.3,24.7c0,3.3,1.8,6.2,5.6,6.2c2.7,0,4.3-1.2,5.1-3.5h4.4c-1,4.6-4.9,7.1-9.5,7.1c-6.6,0-10.2-4.6-10.2-11
	c0-6,3.9-11.1,10.1-11.1c6.6,0,10.7,6,9.9,12.2H20.3z M31.1,21.6c-0.2-2.9-2.1-5.5-5.3-5.5s-5.4,2.4-5.5,5.5H31.1z"/>
<path class="st0" d="M41.3,24.7c0,3.3,1.8,6.2,5.6,6.2c2.7,0,4.3-1.2,5.1-3.5h4.4c-1,4.6-4.9,7.1-9.5,7.1c-6.6,0-10.2-4.6-10.2-11
	c0-6,3.9-11.1,10.1-11.1c6.6,0,10.7,6,9.9,12.2C56.7,24.7,41.3,24.7,41.3,24.7z M52.1,21.6c-0.2-2.9-2.1-5.5-5.3-5.5
	s-5.4,2.4-5.5,5.5H52.1z"/>
<path class="st0" d="M57.7,13h4.4v2.9h0.1c1.4-2.1,3.1-3.5,6.4-3.5c2.6,0,4.9,1.1,5.9,3.5c1.5-2.1,3.5-3.5,6.6-3.5c4.4,0,7,1.9,7,7
	v14.5h-4.6V21.7c0-3.3-0.2-5.6-3.8-5.6c-3.1,0-4.5,2.1-4.5,5.6v12.3h-4.6V20.5c0-2.9-0.9-4.4-3.7-4.4c-2.4,0-4.6,1.9-4.6,5.4v12.4
	h-4.6L57.7,13L57.7,13z"/>
<path class="st0" d="M108,29.3c0,1.1,0.2,1.6,1.1,1.6c0.3,0,0.6,0,1.1-0.1V34c-0.7,0.2-2.1,0.5-2.9,0.5c-1.9,0-3.2-0.6-3.6-2.6
	c-1.8,1.8-4.8,2.6-7.2,2.6c-3.8,0-7.2-2-7.2-6.1c0-5.2,4.2-6.1,8.1-6.5c3.3-0.6,6.3-0.2,6.3-3c0-2.4-2.5-2.8-4.3-2.8
	c-2.6,0-4.4,1-4.6,3.3h-4.6c0.3-5.4,4.9-7,9.5-7c4.1,0,8.4,1.7,8.4,6.1L108,29.3L108,29.3z M103.4,23.4c-1.4,0.9-3.6,0.9-5.7,1.3
	c-2,0.3-3.8,1-3.8,3.5c0,2.1,2.6,2.7,4.3,2.7c2,0,5.2-1,5.2-4L103.4,23.4L103.4,23.4z"/>
<path class="st0" d="M129.9,32.8c0,6.3-3.7,9.4-10.3,9.4c-4.2,0-9-1.6-9.4-6.5h4.6c0.6,2.6,2.7,3.1,5,3.1c3.7,0,5.4-1.9,5.4-5.3
	v-3.2h-0.1c-1.3,2.3-3.7,3.7-6.3,3.7c-6.6,0-9.4-5-9.4-11c0-5.6,3.5-10.5,9.5-10.5c2.6,0,5,1.1,6.2,3.4h0.1V13h4.6L129.9,32.8
	L129.9,32.8z M125.3,23c0-3.6-1.6-6.9-5.6-6.9s-5.5,3.8-5.5,7.3s1.7,6.9,5.5,6.9C123.7,30.3,125.3,26.6,125.3,23z"/>
<path class="st0" d="M132.2,5h4.6v4.4h-4.6V5z M132.2,13h4.6v20.9h-4.6V13z"/>
<path class="st0" d="M139.4,13h4.4v3.1l0.1,0.1c1.4-2.3,3.8-3.7,6.5-3.7c4.5,0,7.4,2.4,7.4,7.1v14.4h-4.6V20.8
	c-0.1-3.3-1.4-4.7-4.1-4.7c-3.1,0-5.1,2.4-5.1,5.5v12.4h-4.6L139.4,13L139.4,13z"/>
<path class="st0" d="M163.8,24.7c0,3.3,1.8,6.2,5.6,6.2c2.7,0,4.3-1.2,5.1-3.5h4.4c-1,4.6-4.9,7.1-9.5,7.1c-6.6,0-10.2-4.6-10.2-11
	c0-6,3.9-11.1,10.1-11.1c6.6,0,10.7,6,9.9,12.2H163.8z M174.5,21.6c-0.2-2.9-2.1-5.5-5.3-5.5c-3.1,0-5.4,2.4-5.5,5.5H174.5z"/>
<polygon class="st1" points="211.1,19.8 209.7,22.7 209.7,22.7 211.1,19.7 "/>
<path class="st0" d="M218.6,22.7l-19.2,2.5c0.1,0.5,0.3,1,0.7,1.5c0.3,0.5,0.8,1,1.4,1.4c0.6,0.4,1.3,0.7,2.2,0.9
	c0.9,0.2,1.9,0.2,3,0.1c0.7-0.1,1.3-0.2,1.8-0.4c0.5-0.2,1-0.4,1.4-0.7c0.4-0.3,0.8-0.6,1.1-1s0.5-0.8,0.7-1.2l7-0.9
	c-0.3,1.2-0.7,2.3-1.3,3.2c-0.6,0.9-1.4,1.7-2.4,2.4c-1,0.7-2.1,1.2-3.3,1.6c-1.3,0.4-2.6,0.7-4.1,0.9c-2,0.3-3.8,0.3-5.5,0.1
	c-1.7-0.2-3.2-0.6-4.5-1.3c-1.3-0.7-2.4-1.7-3.3-2.9c-0.9-1.2-1.5-2.8-1.8-4.6c-0.3-1.8-0.3-3.5,0.1-4.8c0.4-1.4,1.1-2.6,2.1-3.6
	s2.3-1.8,3.8-2.4c1.5-0.6,3.3-1,5.3-1.3c2.2-0.3,4.1-0.3,5.8,0c1.7,0.3,3.2,0.9,4.4,1.7c1.2,0.8,2.2,2,3,3.3s1.4,3,1.7,4.8
	L218.6,22.7L218.6,22.7z M198.7,21.4L198.7,21.4l12.4-1.6l0-0.1c0-0.3-0.2-0.6-0.5-1.1c-0.3-0.4-0.7-0.9-1.3-1.3
	c-0.6-0.4-1.3-0.8-2.1-1c-0.9-0.2-1.9-0.3-3.1-0.1c-1.3,0.2-2.3,0.5-3,1c-0.8,0.5-1.3,1-1.7,1.6c-0.4,0.6-0.6,1.1-0.7,1.6
	C198.7,20.9,198.7,21.2,198.7,21.4"/>
<polygon class="st1" points="236,42.4 234.2,46 234.2,45.9 236,42.3 "/>
<path class="st0" d="M245.2,45.9L221.5,49c0.1,0.6,0.4,1.2,0.8,1.9c0.4,0.6,1,1.2,1.8,1.7c0.8,0.5,1.7,0.9,2.7,1.1
	c1.1,0.2,2.3,0.3,3.7,0.1c0.8-0.1,1.6-0.3,2.2-0.5c0.7-0.2,1.3-0.5,1.8-0.8s1-0.7,1.3-1.2c0.4-0.4,0.6-1,0.8-1.5l8.6-1.1
	c-0.3,1.5-0.9,2.8-1.7,4c-0.8,1.2-1.8,2.1-3,3c-1.2,0.8-2.6,1.5-4.1,2c-1.5,0.5-3.3,0.9-5.1,1.2c-2.4,0.3-4.7,0.4-6.8,0.1
	s-4-0.8-5.6-1.6c-1.6-0.9-3-2-4.1-3.6c-1.1-1.5-1.8-3.4-2.2-5.7c-0.4-2.3-0.4-4.3,0.1-6c0.5-1.7,1.4-3.2,2.6-4.4
	c1.2-1.2,2.8-2.2,4.7-3c1.9-0.8,4.1-1.3,6.5-1.6c2.7-0.3,5-0.3,7.1,0.1c2.1,0.4,3.9,1.1,5.4,2.1c1.5,1,2.8,2.4,3.8,4.1
	c1,1.7,1.7,3.6,2.1,5.9L245.2,45.9L245.2,45.9z M220.6,44.3L220.6,44.3l15.4-1.9l0-0.1c-0.1-0.3-0.3-0.8-0.6-1.3
	c-0.4-0.5-0.9-1.1-1.6-1.6c-0.7-0.5-1.6-1-2.6-1.2c-1.1-0.3-2.3-0.4-3.8-0.2c-1.6,0.2-2.8,0.7-3.8,1.3c-0.9,0.6-1.6,1.3-2,2
	c-0.5,0.7-0.7,1.4-0.8,1.9C220.6,43.7,220.6,44.1,220.6,44.3"/>
</svg>
