<?xml version="1.0" encoding="UTF-8" standalone="no"?>
<!-- Creator: CorelDRAW 2019 (64-Bit) -->

<svg
   xmlns:dc="http://purl.org/dc/elements/1.1/"
   xmlns:cc="http://creativecommons.org/ns#"
   xmlns:rdf="http://www.w3.org/1999/02/22-rdf-syntax-ns#"
   xmlns:svg="http://www.w3.org/2000/svg"
   xmlns="http://www.w3.org/2000/svg"
   xmlns:sodipodi="http://sodipodi.sourceforge.net/DTD/sodipodi-0.dtd"
   xmlns:inkscape="http://www.inkscape.org/namespaces/inkscape"
   xml:space="preserve"
   width="300"
   height="60"
   version="1.1"
   style="clip-rule:evenodd;fill-rule:evenodd;image-rendering:optimizeQuality;shape-rendering:geometricPrecision;text-rendering:geometricPrecision"
   viewBox="0 0 7937.499 1587.4998"
   id="svg67"
   sodipodi:docname="logo-tui-color.svg"
   inkscape:version="0.92.5 (2060ec1f9f, 2020-04-08)"><metadata
   id="metadata71"><rdf:RDF><cc:Work
       rdf:about=""><dc:format>image/svg+xml</dc:format><dc:type
         rdf:resource="http://purl.org/dc/dcmitype/StillImage" /><dc:title></dc:title></cc:Work></rdf:RDF></metadata><sodipodi:namedview
   pagecolor="#ffffff"
   bordercolor="#666666"
   borderopacity="1"
   objecttolerance="10"
   gridtolerance="10"
   guidetolerance="10"
   inkscape:pageopacity="0"
   inkscape:pageshadow="2"
   inkscape:window-width="994"
   inkscape:window-height="613"
   id="namedview69"
   showgrid="false"
   fit-margin-top="0"
   fit-margin-left="0"
   fit-margin-right="0"
   fit-margin-bottom="0"
   inkscape:zoom="1.4419792"
   inkscape:cx="100.05468"
   inkscape:cy="34.989356"
   inkscape:window-x="0"
   inkscape:window-y="29"
   inkscape:window-maximized="0"
   inkscape:current-layer="svg67"
   units="px" />
 <defs
   id="defs4"><style
     type="text/css"
     id="style2">
   <![CDATA[
    .fil0 {fill:#008787}
    .fil1 {fill:#2B2A29;fill-rule:nonzero}
   ]]>
  </style></defs>
 <g
   id="Ebene_x0020_1"
   transform="matrix(0.85919955,0,0,0.85919955,2065.6608,-926.31163)">
  <metadata
   id="CorelCorpID_0Corel-Layer" />
  <g
   id="_2690198745872">
   <path
   class="fil0"
   d="m 5501.09,1497.53 c -22.51,-4.31 -30.84,-21.28 -26.15,-43.12 24.44,-52.62 91.93,-5.24 54.01,35.63 -7.91,6.55 -14.74,9.93 -27.86,7.49 z m -1041.15,194.49 c 3.5,-89.72 52.89,-173 96.12,-248.32 29.81,-46.14 64.42,-90.95 99.81,-132.91 -23.59,3.41 -41.4,9.12 -67.48,13.16 -11.6,2.59 -13.08,-12.88 -5.82,-17.15 31.82,-8.73 64.96,-16.76 97.05,-23.95 56.16,-65.23 91.24,-101.78 138.23,-146.68 18.82,-18.12 53.12,-51.92 85.29,-58.06 23.01,0.63 69.15,9.63 49.71,39.59 -33.45,40.08 -63.52,74.15 -109.08,128.6 41.75,-6.33 83.66,-12.93 125.8,-19.33 18.64,2.02 23.13,13.82 6.72,22.55 -11.45,2.83 -11.45,2.83 -156.31,27.01 -2.17,2.01 -4.42,4.39 -6.55,6.71 -29.19,38.96 -57.44,77.42 -84.76,117.62 -59.41,94.06 -111.41,185.29 -132.44,296.24 -1.55,9.04 -3.03,27.79 3.49,34.65 8.03,0.04 20.76,-6.99 29.23,-10.67 111.44,-57.59 202.83,-134.11 310.51,-201.48 49.48,-117.93 105.75,-237.36 169.66,-347.77 14.04,-15.72 27.55,-6.86 21.92,4.35 -35.23,61.66 -124.95,237.25 -154.09,318.74 66.78,-46.06 167.06,-106.63 239.08,-137.67 26.66,-11.46 64.3,-4.16 79.98,27.27 5.97,12.23 6.2,40.95 0.81,54.87 -28.4,74.67 -61.39,132.87 -93.09,204.62 -11.76,31.05 -35.31,72.42 -31.28,97.06 3.14,19.68 131.94,-73.19 152.31,-89.92 7.41,-6.28 57.47,-47.07 66.36,-53.04 18.98,-12.97 32.95,-22.58 50.02,-21.77 34.07,1.78 67.36,24.09 48.23,44.82 -88.82,95.77 -184.44,193.29 -301.94,224.14 -51.8,13.82 -125.84,-24.56 -129.92,-91.12 -3.54,-55.53 14.12,-108.65 36.39,-159.26 9.94,-22.11 35.91,-77.6 47.97,-100.46 -78.62,51.15 -151.34,103.68 -226.58,163.64 -25.03,67.02 -36.94,100.62 -55.34,171.87 -6.21,24.79 -36.86,17.85 -31.47,-1.75 9.28,-34.57 35.85,-103.99 48,-140.98 -65.43,48.67 -132.48,107.14 -206.48,141.02 -39.5,18.04 -82.78,25.15 -115.34,14.32 -72.32,-24.53 -94.72,-74.7 -94.72,-150.56 z"
   id="path7"
   inkscape:connector-curvature="0"
   style="fill:#008787" />
   <polygon
   class="fil1"
   points="1489.78,2391.02 1443.99,2391.02 1443.99,2103.86 1352.72,2103.86 1352.72,2065.71 1581.01,2065.71 1581.01,2103.86 1489.78,2103.86 "
   id="polygon9"
   style="fill:#2b2a29;fill-rule:nonzero" />
   <polygon
   class="fil1"
   points="1675.15,2203.98 1798.44,2203.98 1798.44,2240.57 1675.15,2240.57 1675.15,2353.49 1810.04,2353.49 1810.04,2391.02 1629.68,2391.02 1629.68,2065.71 1805.62,2065.71 1805.62,2100.8 1675.15,2100.8 "
   id="polygon11"
   style="fill:#2b2a29;fill-rule:nonzero" />
   <path
   class="fil1"
   d="m 2108.37,2077.31 -1.82,39.39 c -12.53,-5.2 -24.75,-9.08 -36.74,-11.68 -11.99,-2.59 -24.18,-3.88 -36.57,-3.88 -39.02,0 -70.08,11.37 -93.05,34.19 -22.97,22.82 -34.46,53.59 -34.46,92.35 0,39.24 11.45,70.05 34.34,92.48 22.91,22.39 54.15,33.6 93.65,33.6 12.53,0 24.76,-1.16 36.67,-3.53 11.91,-2.36 23.63,-5.89 35.23,-10.47 l 1.36,40.9 c -11.29,3.68 -23.36,6.48 -36.17,8.38 -12.81,1.94 -26.42,2.87 -40.75,2.87 -53.31,0 -95.34,-14.43 -126.08,-43.38 -30.76,-28.88 -46.13,-68.3 -46.13,-118.21 0,-50.52 15.67,-90.76 47.07,-120.65 31.31,-29.92 73.53,-44.85 126.51,-44.85 14.2,0 27.74,1.01 40.62,3.07 12.93,2.01 25.04,5.15 36.32,9.42 z"
   id="path13"
   inkscape:connector-curvature="0"
   style="fill:#2b2a29;fill-rule:nonzero" />
   <polygon
   class="fil1"
   points="2353.86,2065.71 2399.34,2065.71 2399.34,2391.02 2353.86,2391.02 2353.86,2240.57 2206.16,2240.57 2206.16,2391.02 2160.69,2391.02 2160.69,2065.71 2206.16,2065.71 2206.16,2203.35 2353.86,2203.35 "
   id="polygon15"
   style="fill:#2b2a29;fill-rule:nonzero" />
   <path
   class="fil1"
   d="m 2481.02,2065.71 h 57.36 l 141.48,253.17 c 1.98,3.69 4.43,9.31 7.22,16.84 2.84,7.53 5.79,16.45 8.81,26.7 -1.98,-11.91 -3.5,-22.66 -4.57,-32.21 -1.06,-9.51 -1.6,-17.73 -1.6,-24.6 v -239.9 h 41.79 v 325.31 h -55.76 l -144.01,-255.5 c -1.86,-3.02 -4.04,-8.18 -6.63,-15.44 -2.64,-7.26 -5.51,-16.65 -8.74,-28.25 2.29,17.38 3.96,30.81 4.97,40.27 0.97,9.47 1.48,16.27 1.48,20.39 v 238.53 h -41.8 z"
   id="path17"
   inkscape:connector-curvature="0"
   style="fill:#2b2a29;fill-rule:nonzero" />
   <polygon
   class="fil1"
   points="2812.5,2065.71 2857.94,2065.71 2857.94,2391.02 2812.5,2391.02 "
   id="polygon19"
   style="fill:#2b2a29;fill-rule:nonzero" />
   <path
   class="fil1"
   d="m 3104.4,2074.25 -4.59,40.01 c -10.09,-4.89 -20.45,-8.58 -31.04,-11.02 -10.67,-2.44 -21.77,-3.65 -33.38,-3.65 -19.74,0 -35.15,3.65 -46.21,10.99 -11.1,7.29 -16.61,17.38 -16.61,30.18 0,10.09 3.73,19.21 11.26,27.43 7.49,8.28 23.62,19.13 48.43,32.72 32.21,17.73 54.41,33.8 66.63,48.31 12.22,14.52 18.31,31.04 18.31,49.68 0,27.63 -10.13,50.29 -30.35,67.98 -20.25,17.74 -46.21,26.58 -78,26.58 -15.4,0 -30.15,-1.24 -44.2,-3.73 -14.04,-2.47 -27.2,-6.12 -39.39,-10.93 l 4.59,-43.63 c 13.42,7.07 26.42,12.31 38.92,15.69 12.57,3.37 24.79,5.08 36.7,5.08 19.1,0 34.47,-4.31 46.07,-12.85 11.64,-8.53 17.43,-19.83 17.43,-33.91 0,-21.81 -22.86,-45.72 -68.61,-71.68 -7.69,-4.26 -13.51,-7.61 -17.47,-10.05 -17.42,-10.09 -31.04,-22.35 -40.97,-36.86 -9.86,-14.52 -14.83,-29.38 -14.83,-44.67 0,-25.33 9.67,-45.44 28.95,-60.3 19.33,-14.91 45.64,-22.35 78.94,-22.35 12.37,0 24.36,0.93 35.97,2.76 11.6,1.81 22.78,4.57 33.45,8.22 z"
   id="path21"
   inkscape:connector-curvature="0"
   style="fill:#2b2a29;fill-rule:nonzero" />
   <path
   class="fil1"
   d="m 3415.61,2077.31 -1.82,39.39 c -12.54,-5.2 -24.8,-9.08 -36.79,-11.68 -11.95,-2.59 -24.14,-3.88 -36.48,-3.88 -39.11,0 -70.11,11.37 -93.05,34.19 -23.01,22.82 -34.46,53.59 -34.46,92.35 0,39.24 11.41,70.05 34.34,92.48 22.86,22.39 54.06,33.6 93.65,33.6 12.49,0 24.67,-1.16 36.62,-3.53 11.87,-2.36 23.63,-5.89 35.24,-10.47 l 1.35,40.9 c -11.29,3.68 -23.32,6.48 -36.16,8.38 -12.84,1.94 -26.39,2.87 -40.78,2.87 -53.24,0 -95.27,-14.43 -126.04,-43.38 -30.78,-28.88 -46.15,-68.3 -46.15,-118.21 0,-50.52 15.68,-90.76 47.04,-120.65 31.39,-29.92 73.58,-44.85 126.54,-44.85 14.2,0 27.74,1.01 40.67,3.07 12.88,2.01 24.99,5.15 36.28,9.42 z"
   id="path23"
   inkscape:connector-curvature="0"
   style="fill:#2b2a29;fill-rule:nonzero" />
   <polygon
   class="fil1"
   points="3661.14,2065.71 3706.58,2065.71 3706.58,2391.02 3661.14,2391.02 3661.14,2240.57 3513.44,2240.57 3513.44,2391.02 3467.96,2391.02 3467.96,2065.71 3513.44,2065.71 3513.44,2203.35 3661.14,2203.35 "
   id="polygon25"
   style="fill:#2b2a29;fill-rule:nonzero" />
   <polygon
   class="fil1"
   points="3833.74,2203.98 3956.99,2203.98 3956.99,2240.57 3833.74,2240.57 3833.74,2353.49 3968.59,2353.49 3968.59,2391.02 3788.26,2391.02 3788.26,2065.71 3964.16,2065.71 3964.16,2100.8 3833.74,2100.8 "
   id="polygon27"
   style="fill:#2b2a29;fill-rule:nonzero" />
   <path
   class="fil1"
   d="m 4175.62,2065.71 h 45.44 v 191.55 c 0,34.8 6.32,60.53 18.94,77.25 12.68,16.69 32.01,25.07 57.94,25.07 26.14,0 45.86,-8.96 59.16,-26.88 13.28,-17.93 19.91,-44.44 19.91,-79.55 v -187.44 h 42.46 v 188.36 c 0,47.62 -10.25,83.36 -30.65,107.22 -20.62,23.87 -51.35,35.82 -92.32,35.82 -39.74,0 -69.78,-11.68 -90.18,-35 -20.46,-23.36 -30.7,-57.82 -30.7,-103.45 z"
   id="path29"
   inkscape:connector-curvature="0"
   style="fill:#2b2a29;fill-rule:nonzero" />
   <path
   class="fil1"
   d="m 4501,2065.71 h 57.36 l 141.48,253.17 c 2.01,3.69 4.46,9.31 7.29,16.84 2.8,7.53 5.67,16.45 8.74,26.7 -1.95,-11.91 -3.5,-22.66 -4.59,-32.21 -1.04,-9.51 -1.58,-17.73 -1.58,-24.6 v -239.9 h 41.83 v 325.31 h -55.77 l -144.04,-255.5 c -1.83,-3.02 -4.04,-8.18 -6.64,-15.44 -2.56,-7.26 -5.51,-16.65 -8.69,-28.25 2.29,17.38 3.96,30.81 4.96,40.27 1.02,9.47 1.45,16.27 1.45,20.39 v 238.53 H 4501 Z"
   id="path31"
   inkscape:connector-curvature="0"
   style="fill:#2b2a29;fill-rule:nonzero" />
   <polygon
   class="fil1"
   points="4832.67,2065.71 4878.15,2065.71 4878.15,2391.02 4832.67,2391.02 "
   id="polygon33"
   style="fill:#2b2a29;fill-rule:nonzero" />
   <polygon
   class="fil1"
   points="5042.92,2391.02 4927.28,2065.71 4975.67,2065.71 5071.13,2347.52 5169.97,2065.71 5215.95,2065.71 5096.04,2391.02 "
   id="polygon35"
   style="fill:#2b2a29;fill-rule:nonzero" />
   <polygon
   class="fil1"
   points="5308.58,2203.98 5431.87,2203.98 5431.87,2240.57 5308.58,2240.57 5308.58,2353.49 5443.43,2353.49 5443.43,2391.02 5263.09,2391.02 5263.09,2065.71 5439.04,2065.71 5439.04,2100.8 5308.58,2100.8 "
   id="polygon37"
   style="fill:#2b2a29;fill-rule:nonzero" />
   <path
   class="fil1"
   d="m 5552.62,2100.8 v 110.78 h 34.93 c 22.75,0 40.56,-5.01 53.36,-14.97 12.96,-10.02 19.44,-23.8 19.44,-41.33 0,-18.79 -6.01,-32.53 -18.04,-41.29 -11.96,-8.77 -30.66,-13.19 -56.11,-13.19 z m -45.16,-35.09 h 87.66 c 37.06,0 64.92,6.98 83.63,20.95 18.58,13.97 27.97,34.77 27.97,62.41 0,20.57 -6.12,37.71 -18.31,51.38 -12.22,13.66 -29.69,22.93 -52.58,27.81 9.78,2.57 17.73,6.99 23.86,13.24 5.98,6.25 12.34,17.19 18.89,32.76 l 49.22,116.76 h -48.74 l -42.77,-106.48 c -5.62,-13.74 -12.73,-23.41 -21.31,-29.11 -8.49,-5.63 -20.63,-8.45 -36.35,-8.45 h -26.01 v 144.04 h -45.16 z"
   id="path39"
   inkscape:connector-curvature="0"
   style="fill:#2b2a29;fill-rule:nonzero" />
   <path
   class="fil1"
   d="m 5950.31,2074.25 -4.58,40.01 c -10.1,-4.89 -20.46,-8.58 -31.05,-11.02 -10.6,-2.44 -21.73,-3.65 -33.29,-3.65 -19.83,0 -35.24,3.65 -46.3,10.99 -11.05,7.29 -16.64,17.38 -16.64,30.18 0,10.09 3.76,19.21 11.29,27.43 7.49,8.28 23.67,19.13 48.46,32.72 32.21,17.73 54.41,33.8 66.59,48.31 12.23,14.52 18.32,31.04 18.32,49.68 0,27.63 -10.09,50.29 -30.35,67.98 -20.22,17.74 -46.25,26.58 -77.99,26.58 -15.37,0 -30.12,-1.24 -44.16,-3.73 -14.09,-2.47 -27.21,-6.12 -39.39,-10.93 l 4.54,-43.63 c 13.46,7.07 26.46,12.31 38.99,15.69 12.5,3.37 24.76,5.08 36.68,5.08 19.05,0 34.49,-4.31 46.1,-12.85 11.56,-8.53 17.39,-19.83 17.39,-33.91 0,-21.81 -22.9,-45.72 -68.7,-71.68 -7.6,-4.26 -13.38,-7.61 -17.38,-10.05 -17.38,-10.09 -31.04,-22.35 -40.97,-36.86 -9.9,-14.52 -14.83,-29.38 -14.83,-44.67 0,-25.33 9.7,-45.44 28.99,-60.3 19.29,-14.91 45.56,-22.35 78.89,-22.35 12.42,0 24.41,0.93 35.97,2.76 11.57,1.81 22.75,4.57 33.42,8.22 z"
   id="path41"
   inkscape:connector-curvature="0"
   style="fill:#2b2a29;fill-rule:nonzero" />
   <polygon
   class="fil1"
   points="6025.51,2065.71 6070.95,2065.71 6070.95,2391.02 6025.51,2391.02 "
   id="polygon43"
   style="fill:#2b2a29;fill-rule:nonzero" />
   <polygon
   class="fil1"
   points="6256.75,2391.02 6210.96,2391.02 6210.96,2103.86 6119.73,2103.86 6119.73,2065.71 6348.02,2065.71 6348.02,2103.86 6256.75,2103.86 "
   id="polygon45"
   style="fill:#2b2a29;fill-rule:nonzero" />
   <path
   class="fil1"
   d="m 6509.96,1974.49 h 39.03 v 43.64 h -39.03 z m -76.29,0 h 39.07 v 43.64 h -39.07 z m 54.68,131.07 -64.62,165.55 h 127.09 z m -26.74,-39.85 h 55.34 l 127.58,325.31 h -49.27 l -31.37,-83.63 H 6409.1 l -31.36,83.63 h -46.02 z"
   id="path47"
   inkscape:connector-curvature="0"
   style="fill:#2b2a29;fill-rule:nonzero" />
   <polygon
   class="fil1"
   points="6761.45,2391.02 6715.7,2391.02 6715.7,2103.86 6624.47,2103.86 6624.47,2065.71 6852.72,2065.71 6852.72,2103.86 6761.45,2103.86 "
   id="polygon49"
   style="fill:#2b2a29;fill-rule:nonzero" />
   <polygon
   class="fil1"
   points="4693.12,2592.85 4779.78,2592.85 4779.78,2918.15 4693.12,2918.15 "
   id="polygon51"
   style="fill:#2b2a29;fill-rule:nonzero" />
   <polygon
   class="fil1"
   points="5066.62,2918.15 4849.4,2918.15 4849.4,2592.85 4936.01,2592.85 4936.01,2853.73 5066.62,2853.73 "
   id="polygon53"
   style="fill:#2b2a29;fill-rule:nonzero" />
   <path
   class="fil1"
   d="m 5110.91,2592.85 h 132.24 l 59.57,195.5 c 2.28,7.75 4.19,16.49 5.63,26.19 1.43,9.66 2.52,20.1 3.33,31.24 1.06,-12.07 2.41,-23.17 4.08,-33.3 1.66,-10.16 3.61,-18.82 5.74,-25.96 l 59.52,-193.67 h 130.2 v 325.3 h -81.41 v -218.44 c 0,-10.36 0.31,-21.11 0.89,-32.24 0.62,-11.18 1.52,-23.06 2.75,-35.71 -2.13,9.75 -4.34,19.1 -6.63,28.02 -2.29,8.93 -4.7,17.35 -7.34,25.3 l -73.21,233.07 h -77.93 l -71.6,-229.19 c -2.48,-7.92 -4.8,-16.76 -7.1,-26.42 -2.32,-9.7 -4.46,-19.95 -6.44,-30.78 1.09,15.37 1.98,29.26 2.67,41.53 0.66,12.3 0.97,21.54 0.97,27.82 v 217.04 h -75.93 z"
   id="path55"
   inkscape:connector-curvature="0"
   style="fill:#2b2a29;fill-rule:nonzero" />
   <polygon
   class="fil1"
   points="5667.07,2719.16 5798.62,2719.16 5798.62,2781.13 5667.07,2781.13 5667.07,2855.28 5811.73,2855.28 5811.73,2918.15 5580.41,2918.15 5580.41,2592.85 5806.53,2592.85 5806.53,2653.84 5667.07,2653.84 "
   id="polygon57"
   style="fill:#2b2a29;fill-rule:nonzero" />
   <path
   class="fil1"
   d="m 5872.15,2592.85 h 108.31 l 94.02,195.03 c 3.18,6.56 6.95,15.68 11.21,27.35 4.27,11.65 9.01,25.93 14.17,42.89 -2.76,-16.03 -4.81,-30.73 -6.09,-44.16 -1.28,-13.43 -1.94,-25.69 -1.94,-36.86 v -184.25 h 78.46 v 325.3 h -107.84 l -97.75,-202.18 c -4.58,-9.31 -8.81,-19.44 -12.57,-30.31 -3.85,-10.94 -7.3,-22.78 -10.51,-35.61 3.05,19.4 5.31,37.21 6.75,53.47 1.43,16.26 2.24,30.58 2.24,42.92 v 171.71 h -78.46 z"
   id="path59"
   inkscape:connector-curvature="0"
   style="fill:#2b2a29;fill-rule:nonzero" />
   <path
   class="fil1"
   d="m 6379.61,2665.45 -42.14,122.09 h 82.89 z m -50.61,-72.6 h 104.67 l 123.21,325.3 h -92.71 l -23.21,-68.69 h -125.27 l -24.24,68.69 h -85.8 z"
   id="path61"
   inkscape:connector-curvature="0"
   style="fill:#2b2a29;fill-rule:nonzero" />
   <path
   class="fil1"
   d="m 6572.98,2592.85 h 86.61 v 189.41 c 0,27.78 4.15,47.88 12.38,60.22 8.23,12.37 21.42,18.55 39.62,18.55 18.67,0 32.71,-6.64 42.14,-19.91 9.47,-13.27 14.2,-32.9 14.2,-58.86 v -189.41 h 82.7 v 189.41 c 0,47.88 -11.56,83.77 -34.69,107.64 -23.14,23.9 -57.86,35.86 -104.27,35.86 -45.99,0 -80.52,-12.03 -103.81,-36.09 -23.24,-24.02 -34.88,-59.84 -34.88,-107.41 z"
   id="path63"
   inkscape:connector-curvature="0"
   style="fill:#2b2a29;fill-rule:nonzero" />
  </g>
 </g>
</svg>
